<svg width="549" height="335" viewBox="0 0 549 335" fill="none" xmlns="http://www.w3.org/2000/svg">
<g clip-path="url(#clip0_2002_257)">
<path d="M341.693 239.243C342.671 239.166 343.444 239.114 344.423 239.424L344.706 240.042L344.114 240.712C343.186 240.738 342.362 240.738 341.461 240.532L341.178 239.913L341.693 239.243Z" fill="#282E96"/>
<path d="M387.795 79.7392C388.464 79.6361 388.541 79.6103 389.16 79.8938C389.263 80.8731 389.288 81.6205 388.979 82.5741C388.361 82.6514 388.258 82.6772 387.692 82.3937C387.537 81.4143 387.537 80.7443 387.795 79.7392Z" fill="#282E96"/>
<path d="M351.196 239.243C351.917 239.217 352.948 239.037 353.617 239.321C353.978 239.475 353.926 239.836 354.004 240.171L353.205 240.686C352.278 240.712 351.274 240.867 350.475 240.326L350.449 239.707L351.196 239.243Z" fill="#282E96"/>
<path d="M359.979 239.243L360.236 239.192C361.164 239.089 362.142 239.011 362.915 239.552L362.657 240.609C361.807 240.764 360.855 240.686 359.979 240.686L359.567 240.197L359.979 239.243Z" fill="#282E96"/>
<path d="M387.82 114.351C388.541 114.222 388.49 114.171 389.108 114.583C389.237 115.64 389.34 116.31 388.748 117.263C388.026 117.238 388.052 117.263 387.537 116.748C387.357 115.743 387.382 115.253 387.82 114.351Z" fill="#172567"/>
<path d="M387.923 140.149C388.619 140.098 388.619 140.175 389.16 140.613C389.211 141.721 389.34 142.185 388.722 143.139L387.82 143.036C387.692 142.829 387.614 142.778 387.537 142.494C387.279 141.489 387.485 141.025 387.923 140.149Z" fill="#282E96"/>
<path d="M387.692 201.513C388.387 201.255 388.387 201.229 389.082 201.461C389.288 202.466 389.211 203.239 389.031 204.219C388.387 204.477 388.413 204.477 387.769 204.219C387.382 203.317 387.589 202.441 387.692 201.513Z" fill="#282E96"/>
<path d="M369.122 239.243L369.354 239.192C370.384 239.063 371.414 238.96 372.238 239.553L371.981 240.506C371.749 240.583 371.723 240.609 371.44 240.661C370.487 240.815 369.534 240.764 368.787 240.197L369.122 239.243Z" fill="#282E96"/>
<path d="M332.756 239.243C333.786 239.037 335.048 239.011 335.949 239.527L335.614 240.506C335.202 240.661 335.305 240.661 334.97 240.661C333.94 240.712 333.168 240.893 332.395 240.171L332.756 239.243Z" fill="#282E96"/>
<path d="M388.104 165.947H388.722C389.443 166.798 389.237 167.39 389.237 168.473L388.516 169.091C387.923 169.04 387.923 168.885 387.511 168.473C387.46 167.287 387.357 166.926 388.104 165.947Z" fill="#282E96"/>
<path d="M388.001 148.654C388.773 148.706 388.748 148.706 389.263 149.273C389.263 150.329 389.366 150.716 388.748 151.618L387.846 151.566L387.408 150.999C387.357 149.865 387.228 149.582 388.001 148.654Z" fill="#282E96"/>
<path d="M387.64 123.165L388.438 122.908L389.16 123.32C389.211 124.454 389.288 124.944 388.773 126C388.207 126.052 388.129 125.974 387.614 125.691C387.331 124.712 387.331 124.145 387.64 123.165Z" fill="#282E96"/>
<path d="M387.589 157.468L388.413 157.21L389.031 157.597C389.16 158.654 389.237 159.324 388.722 160.303C388.275 160.389 387.855 160.32 387.46 160.097C387.357 159.118 387.279 158.396 387.589 157.468Z" fill="#282E96"/>
<path d="M387.692 131.67C388.49 131.49 388.413 131.49 389.108 131.928C389.237 132.907 389.263 133.577 388.876 134.505L388.104 134.685L387.434 134.247C387.305 133.216 387.279 132.598 387.692 131.67Z" fill="#282E96"/>
<path d="M388.078 191.745C388.541 191.797 388.748 192.003 389.134 192.261C389.211 193.472 389.391 194.013 388.748 195.095L387.846 194.992L387.434 194.271C387.46 193.266 387.486 192.57 388.078 191.745Z" fill="#282E96"/>
<path d="M387.82 182.931C388.567 182.828 388.542 182.828 389.185 183.24C389.185 184.426 389.237 184.993 388.645 186.075C387.975 186.101 388.026 186.101 387.511 185.663C387.305 184.58 387.434 183.962 387.82 182.931Z" fill="#282E96"/>
<path d="M388.335 62.1367L388.773 62.2141C389.52 63.0645 389.237 63.8893 389.211 64.9717L388.438 65.4356L387.872 65.2294C387.331 64.4562 387.434 63.6831 387.46 62.7811L388.335 62.1367Z" fill="#282E96"/>
<path d="M387.923 97.0581C388.644 96.955 388.593 96.9808 389.211 97.3673C389.211 98.5786 389.417 99.3002 388.722 100.331C388.078 100.305 388.052 100.331 387.563 99.893C387.485 98.8106 387.382 98.0632 387.923 97.0581Z" fill="#282E96"/>
<path d="M387.64 105.872L388.593 105.718L389.134 106.104C389.237 107.058 389.263 107.779 388.954 108.707L388.129 108.939L387.46 108.475C387.305 107.47 387.279 106.8 387.64 105.872Z" fill="#282E96"/>
<path d="M388.078 228.239C388.619 228.264 388.722 228.393 389.185 228.702C389.211 229.914 389.366 230.506 388.748 231.563L387.846 231.46L387.511 230.945C387.486 229.733 387.305 229.269 388.078 228.239Z" fill="#282E96"/>
<path d="M388.078 88.244C388.541 88.2697 388.773 88.4759 389.185 88.7079C389.237 89.9707 389.469 90.4862 388.748 91.5686C388.026 91.5428 388.026 91.5686 387.511 91.0789C387.434 89.7388 387.279 89.3522 388.078 88.244Z" fill="#282E96"/>
<path d="M387.743 219.115C388.49 218.935 388.438 218.961 389.134 219.347C389.237 220.404 389.314 221.254 388.902 222.285L387.949 222.44L387.486 222.002C387.382 220.919 387.279 220.12 387.743 219.115Z" fill="#282E96"/>
<path d="M377.853 239.243L378.265 239.14C379.295 238.96 380.557 238.934 381.356 239.553L381.124 240.506C380.841 240.635 380.583 240.686 380.274 240.686C379.244 240.712 378.317 240.918 377.57 240.197L377.853 239.243Z" fill="#282E96"/>
<path d="M387.82 70.9508L388.902 70.822L389.314 71.2859C389.288 72.4714 389.52 73.193 388.747 74.1466C388.001 74.0951 388.026 74.0435 387.485 73.5023C387.331 72.4714 387.408 71.9044 387.82 70.9508Z" fill="#282E96"/>
<path d="M388.155 237.362C388.747 237.362 388.773 237.336 389.263 237.671C389.288 238.547 389.391 239.346 389.057 240.171L387.795 240.455C387.228 240.248 387.176 240.171 386.79 239.707C387.408 238.934 387.485 238.083 388.155 237.362Z" fill="#282E96"/>
<path d="M364.641 61.7244C364.692 62.446 364.615 63.1161 364.512 63.8377L348.569 78.167L347.488 77.2393L364.641 61.7244Z" fill="#172567"/>
<path d="M385.374 42.5499L385.992 43.9674L382.592 47.0858L364.512 63.8377C364.641 63.1161 364.692 62.446 364.641 61.7244L381.433 46.158L385.374 42.5499Z" fill="#282E96"/>
<path d="M114.119 102.238L114.711 103.037C114.428 103.682 114.016 104.068 113.527 104.532L95.3434 121.464L94.2617 120.073L106.599 108.681C108.891 106.568 111.389 103.707 114.119 102.238Z" fill="#172567"/>
<path d="M304.296 45.8745L320.135 60.5131L336.516 75.5383C336.387 76.0537 336.284 76.5176 335.949 76.9558L319.028 61.4667L303.369 47.1116L304.296 45.8745Z" fill="#172567"/>
<path d="M266.59 115.846C267.595 115.408 267.878 114.635 268.342 113.681C269.14 112.006 269.861 110.305 270.273 108.501C270.582 107.109 270.531 105.718 271.149 104.403C273.312 108.346 274.755 114.248 273.39 118.681C273.003 119.944 272.334 121.207 271.484 122.212L268.625 118.655C268.058 117.702 267.286 116.877 266.564 116.001L266.59 115.846Z" fill="#19A063"/>
<path d="M57.0969 157.133L57.5347 157.21L58.3846 158.215C51.0701 163.808 44.2707 169.839 37.8834 176.488C37.5228 176.849 33.7626 180.947 33.5823 180.947L28.1479 187.57L26.8087 186.539L30.9037 181.771C38.4243 172.596 47.6189 164.169 57.0969 157.133Z" fill="#172567"/>
<path d="M1.51698 330.477C1.80029 330.374 2.05784 330.296 2.3669 330.271C4.47883 330.09 17.0732 329.884 18.3867 330.451C18.6442 330.554 19.0306 330.992 19.2881 331.173C19.4684 331.637 19.6229 332.049 19.5714 332.539C19.4684 333.544 19.2108 333.621 18.4897 334.24C17.305 334.523 15.8627 334.394 14.6522 334.394H7.36342C5.79235 334.394 3.60315 334.652 2.10935 334.317C1.28518 334.136 1.07914 333.776 0.667053 333.131C0.692808 331.817 0.589787 331.533 1.51698 330.477Z" fill="#172567"/>
<path d="M503.848 135.278L505.007 136.026L480.308 162.442C476.135 166.746 471.911 171.488 467.275 175.277C466.812 175.045 466.606 174.632 466.348 174.22L503.848 135.278Z" fill="#172567"/>
<path d="M475.414 235.635L482.291 235.661L482.265 248.289L481.93 248.186C480.694 247.49 476.908 247.903 475.362 247.928L475.414 235.635Z" fill="#F9BD3F"/>
<path d="M463.464 204.554C464.339 204.631 465.55 204.631 466.348 205.018C467.456 205.533 468.718 206.796 469.155 207.956C469.593 209.167 469.516 210.971 468.924 212.105C467.945 213.961 466.503 214.682 464.597 215.275C463.644 215.146 462.562 214.992 461.686 214.528C460.399 213.858 459.343 212.698 458.931 211.306C458.544 210.018 458.725 208.549 459.394 207.363C460.373 205.662 461.686 205.044 463.464 204.554Z" fill="#22BF98"/>
<path d="M463.129 206.848C463.618 206.77 464.159 206.77 464.674 206.745C465.498 207.08 466.245 207.363 466.734 208.162C467.198 208.884 467.327 209.683 467.121 210.507C466.838 211.693 466.039 212.286 465.009 212.853C464.494 212.956 463.927 212.93 463.412 212.981C462.408 212.543 461.893 212.157 461.249 211.28C461.017 210.456 460.811 209.734 461.094 208.909C461.455 207.827 462.202 207.337 463.129 206.848Z" fill="#FCFCFD"/>
<path d="M434.901 265.505H441.906L441.803 274.216C441.803 275.041 441.623 276.793 442.009 277.489L441.675 279.01H439.872C438.249 278.675 436.292 279.293 434.875 278.417L435.004 277.515L434.824 277.438L434.901 265.505Z" fill="#F9BD3F"/>
<path d="M435.03 277.541L442.009 277.489L441.675 279.01H439.872C438.249 278.675 436.292 279.293 434.875 278.417L435.03 277.541Z" fill="#F49A3B"/>
<path d="M442.859 142.675L444.482 142.443C444.817 140.845 444.662 139.067 444.688 137.443L444.739 128.526L444.817 118.861C444.817 117.315 444.997 115.562 444.739 114.016C444.353 111.671 443.143 109.841 441.881 107.882C444.894 109.738 446.851 112.057 447.624 115.537C448.422 119.068 447.985 123.294 447.985 126.902L447.856 143.603C446.851 143.113 446.104 142.752 444.945 142.752L442.859 142.675Z" fill="#C4C9DF"/>
<path d="M336.516 75.5383L339.478 78.167C341.306 77.3681 343.032 76.6723 345.041 77.4197C345.453 77.5743 345.788 77.7805 346.148 78.0124L347.462 77.265L348.544 78.1928C348.415 78.3217 347.797 78.8371 347.771 78.9918C347.642 79.4557 348.415 80.8731 348.544 81.3886C348.775 82.2648 348.775 83.3988 348.544 84.2751C348.209 85.6152 347.204 86.878 346.02 87.5739C344.758 88.3213 343.289 88.5017 341.899 88.1151C340.508 87.7285 338.963 86.4399 338.319 85.1513C337.417 83.3473 337.675 81.6721 338.344 79.8422L338.473 79.4814C337.726 78.5794 336.825 77.7805 335.949 76.9815C336.284 76.5176 336.387 76.0537 336.516 75.5383Z" fill="#3A47A5"/>
<path d="M20.7562 197.338C20.035 196.693 19.3396 196.075 18.8245 195.25C17.8716 193.704 17.8458 191.9 18.3609 190.199C18.8245 188.652 20.1123 187.209 21.5288 186.488C23.4347 185.508 24.9028 185.869 26.8344 186.513L28.1737 187.544C28.9721 188.524 29.616 189.348 30.1311 190.508C30.2856 192.596 30.1826 194.297 28.7918 195.998C27.7101 197.312 26.0875 198.059 24.3877 198.188C23.1257 198.265 22.25 197.879 21.091 197.441L20.7562 197.338Z" fill="#3A47A5"/>
<path d="M266.564 116.001C267.286 116.851 268.058 117.702 268.625 118.655L271.484 122.212L272.076 123.346C271.741 123.655 271.432 123.964 271.149 124.325L270.479 123.526C267.414 124.892 265.045 125.459 261.671 125.176C255.876 124.686 251.395 121.799 247.763 117.392C249.051 117.16 250.57 117.805 251.832 118.037C256.365 118.964 260.873 118.604 264.942 116.361L265.406 116.748C265.689 116.361 266.101 116.207 266.564 116.001Z" fill="#19A063"/>
<path d="M266.565 116.001C267.286 116.851 268.058 117.702 268.625 118.655L271.484 122.212L272.076 123.346C271.741 123.655 271.432 123.964 271.149 124.325L270.479 123.526C269.655 122.057 268.496 120.691 267.517 119.325C267.157 119.196 265.715 117.186 265.406 116.774C265.689 116.361 266.101 116.207 266.565 116.001Z" fill="#2E445A"/>
<path d="M35.8745 77.4454C37.3168 77.3681 38.6303 77.2393 39.9954 77.7547C41.6952 78.3732 43.189 79.8165 43.9102 81.4659C44.5025 82.8061 44.5541 84.9194 44.0132 86.2595C43.0087 88.7852 41.7467 89.7903 39.2742 90.8985C38.038 91.0789 36.5699 91.1562 35.3852 90.7181C33.6338 90.0996 32.0112 88.5533 31.2128 86.9038C30.5689 85.5379 30.4917 83.0895 31.0325 81.6721C31.934 79.4557 33.7626 78.3475 35.8745 77.4454Z" fill="#5DC5EF"/>
<path d="M36.8275 79.7391C37.6259 79.5845 38.7591 79.7392 39.5318 80.0742C40.768 80.6154 41.4634 81.6205 41.9012 82.8576C42.3133 83.9658 42.2361 85.0224 41.721 86.0791C40.9998 87.4966 39.9954 88.1924 38.5273 88.7079C37.4456 88.811 36.4926 88.7336 35.5139 88.244C34.4837 87.7028 33.5565 86.7234 33.2475 85.5637C32.9384 84.4039 33.299 82.6256 33.9171 81.6463C34.5868 80.5123 35.5912 80.0742 36.8275 79.7391Z" fill="#FCFCFD"/>
<path d="M288.508 169.22L296.286 182.39L285.649 192.647C284.954 191.462 284.387 190.096 284.052 188.781C282.327 181.462 284.67 175.328 288.508 169.22Z" fill="#19A063"/>
<path d="M499.212 10.2316L500.113 10.1542L508.484 18.6591C507.917 19.8961 506.629 21.0043 505.676 21.9321L499.727 27.6278C498.439 26.8288 497.332 25.5402 496.25 24.4836C494.37 22.6537 492.438 20.8497 490.738 18.8395C493.031 15.7468 496.482 12.9376 499.212 10.2316Z" fill="#D85336"/>
<path d="M499.65 12.1902C502.019 13.685 504.286 16.5973 506.192 18.6591C504.26 21.1074 501.839 23.2723 499.624 25.4629C497.692 23.5042 494.447 20.8497 493.211 18.4787L499.65 12.1902Z" fill="#FCFCFD"/>
<path d="M385.374 42.5499L386.43 41.3644C385.116 39.1995 381.716 36.9058 379.759 35.2048L398.535 27.8597L393.049 48.1167L387.64 42.4468L385.992 43.9931L385.374 42.5499Z" fill="#172567"/>
<path d="M296.672 184.761L307.567 201.41L304.064 201.642C297.316 201.719 291.727 198.884 287.04 194.271C289.59 190.766 293.35 187.493 296.672 184.761Z" fill="#19A063"/>
<path d="M503.848 135.278L506.295 132.392L500.216 126.129L519.275 118.114L514.227 139.711C512.038 137.907 509.72 134.917 507.325 133.629L505.033 136.051L503.848 135.278Z" fill="#3A47A5"/>
<path d="M466.322 174.194C466.606 174.607 466.812 175.019 467.25 175.251C462.768 179.941 457.617 184.194 452.672 188.395C447.624 192.673 442.473 197.157 437.013 200.946C434.103 203.188 430.368 205.147 427.844 207.801C428.462 209.373 428.591 210.894 428.102 212.517C427.741 213.677 426.608 214.837 425.526 215.378C424.135 216.074 422.255 216.048 420.813 215.533C419.113 214.914 418.109 213.574 417.362 212.002L417.181 211.641L400.569 212.672L392.971 212.749C392.121 212.749 390.628 212.517 389.829 212.724C389.546 212.801 388.979 213.291 388.722 213.471L387.923 213.291L387.382 212.363C387.408 211.512 387.382 210.92 387.923 210.224H389.005C389.16 210.662 389.366 210.971 389.623 211.358L417.13 210.25C417.387 209.347 417.593 208.342 418.109 207.543C419.01 206.152 420.349 205.327 421.946 204.992C423.672 204.631 424.985 205.224 426.402 206.152L426.711 206.358L436.034 199.941L466.322 174.194Z" fill="#282E96"/>
<path d="M255.541 44.4313L256.417 45.926L250.133 51.5959L228.369 71.157L209.207 88.2182L206.246 91.0789C206.58 92.2644 206.477 93.4757 206.014 94.6097C205.525 95.7952 204.469 96.7488 203.284 97.2127C202.048 97.7024 200.27 97.7024 199.086 97.1096C197.875 96.4911 196.768 95.3829 196.33 94.0943L196.021 93.218L195.892 92.8572H155.765C154.967 92.8572 153.705 93.0118 152.958 92.7283C152.52 92.5479 152.546 92.2902 152.391 91.8779L152.829 91.3366L195.944 91.182L196.562 90.3058C197.746 88.6821 198.777 87.9089 200.811 87.6254C202.769 87.3677 203.928 88.2182 205.396 89.3522L209.645 85.8987C210.109 84.9194 212.375 83.2957 213.277 82.4968L227.004 70.2808L248.948 50.5393L255.541 44.4313Z" fill="#172567"/>
<path d="M447.598 247.954C448.088 244.088 447.676 239.475 447.676 235.532L475.414 235.609L475.337 247.877C476.882 247.877 480.668 247.439 481.904 248.135L482.239 248.238V249.475L475.388 249.423L475.053 249.501H447.65L447.598 247.954Z" fill="#FBCC52"/>
<path d="M475.337 247.903C476.882 247.903 480.668 247.465 481.904 248.16L482.239 248.264V249.501L475.388 249.449L475.053 249.526H447.65L447.573 247.98L475.337 247.903Z" fill="#F0A83D"/>
<path d="M475.44 249.449L475.337 248.702L475.697 248.264L481.956 248.186L482.291 248.289V249.526L475.44 249.449Z" fill="#F49A3B"/>
<path d="M295.616 4.87094C302.313 8.83986 306.562 14.9479 308.443 22.4991C310.117 29.1999 309.55 37.447 305.919 43.4261C305.429 44.2509 304.914 45.1529 304.296 45.8745L303.369 47.1116C300.974 49.998 298.14 52.7299 294.947 54.6886C288.173 58.8121 280.73 59.843 273.106 57.9359C266.693 56.338 259.842 51.6732 256.417 45.926L255.541 44.4313L254.537 41.9056C255.85 42.1633 257.627 44.9725 258.683 46.0034C261.516 48.761 265.457 51.2093 269.166 52.601C274.935 54.7401 282.404 54.8174 288.019 52.2145C294.638 49.1733 299.402 43.22 301.875 36.4419C304.657 28.8133 304.502 18.4529 300.278 11.3913C299.48 10.0512 298.527 8.73677 297.522 7.55125C296.93 6.8554 296.106 6.08223 295.745 5.25752L295.616 4.87094Z" fill="#F49A3B"/>
<path d="M201.172 28.7875C202.331 28.504 203.516 28.6587 204.649 28.8906C205.885 29.87 204.906 30.6947 205.421 32.0091C205.602 32.4472 208.152 33.375 208.744 33.6327C209.465 32.9884 210.032 32.5761 210.933 32.241C212.066 33.143 212.865 34.3801 213.689 35.5399L211.654 37.112C211.783 37.6532 212.453 40.8489 212.891 41.0551C212.994 41.1066 213.663 41.1066 213.818 41.1066C214.513 41.1582 214.951 41.1582 215.492 41.6221C215.415 42.7561 215.595 44.1478 214.822 44.9983L212.633 45.0498L212.144 45.591C211.757 46.1065 210.882 47.3951 210.753 47.9878C210.598 48.7094 211.809 50.2042 211.938 51.0805C211.036 51.8021 210.289 52.6526 209.156 52.8588L207.714 51.5444C206.709 51.6217 205.009 52.3691 204.108 52.9103L203.799 55.4618L202.743 55.7453C201.713 55.6937 200.605 55.8741 199.858 55.1525L200.09 52.9619C199.395 52.0598 197.566 51.5702 196.484 51.1578L194.063 53.0134C192.853 52.0083 191.926 50.8743 190.947 49.6888C191.668 48.9672 192.698 48.2713 192.827 47.2404C192.106 46.0807 192.183 44.5859 191.539 43.6066C190.973 42.7303 189.556 43.5292 188.784 42.5757C188.809 41.5705 188.655 40.2304 189.273 39.4057L191.514 39.5345C192.029 38.581 193.085 37.1377 193.239 36.1068C193.342 35.3595 192.595 34.7151 192.158 34.1482C192.158 33.0657 193.6 31.7771 194.347 30.9266C195.016 31.5194 195.763 32.2926 196.562 32.7307C197.025 32.9626 200.27 31.8287 200.992 31.6225C201.043 30.6689 201.069 29.7669 201.172 28.7875Z" fill="#5DC5EF"/>
<path d="M201.996 36.545C202.846 36.5965 203.799 36.8027 204.572 37.215C205.885 37.9109 206.761 39.1995 207.224 40.5912C207.636 41.8798 207.559 43.0911 206.941 44.3024C205.962 46.2095 204.34 46.9569 202.382 47.5497C201.481 47.4466 200.502 47.2662 199.678 46.8796C198.339 46.2353 197.386 45.1271 196.948 43.7096C196.587 42.4726 196.716 40.5912 197.386 39.483C198.493 37.6532 200.064 37.0604 201.996 36.545Z" fill="#FCFCFD"/>
<path d="M414.529 158.937L447.727 158.963C447.933 163.396 448.886 169.272 445.615 172.828C444.688 173.859 443.761 174.632 442.525 175.225L442.318 175.328C440.593 176.127 438.404 176.024 436.524 176.076L426.041 176.179H397.401L391.143 175.947C390.911 175.947 390.035 175.895 389.855 175.973C389.623 176.076 389.546 176.333 389.391 176.514L388.619 177.261C388.258 177.158 387.923 177.055 387.589 176.9C387.46 176.694 387.382 176.411 387.176 176.256C386.636 175.895 381.819 176.204 380.789 176.204L356.605 176.23C352.742 176.23 348.518 176.565 344.68 176.101C342.697 175.869 340.946 175.148 339.091 174.4L340.559 171.823L376.565 172.132H426.247L437.451 172.107C438.429 172.107 440.232 172.339 441.082 172.081C441.778 171.875 443.168 170.741 443.683 170.174C445.718 167.957 444.946 162.21 444.894 159.272L414.529 158.937Z" fill="#C4C9DF"/>
<path d="M387.563 176.849C387.511 175.947 387.46 175.302 387.795 174.452C388.516 174.297 388.516 174.246 389.134 174.632L389.366 176.488L388.593 177.235C388.232 177.106 387.898 177.029 387.563 176.849Z" fill="#282E96"/>
<path d="M272.076 123.346C276.609 130.021 279.828 136.799 282.584 144.35L284.567 141.541L284.773 141.489C285.211 141.773 285.598 141.979 285.778 142.494V142.855C281.889 147.7 279.185 153.86 276.841 159.556C273.621 167.39 270.917 175.302 269.32 183.653C267.157 194.915 266.951 206.513 266.899 217.955C266.874 223.29 266.564 228.909 267.157 234.218L267.337 235.558C268.187 232.491 268.599 229.321 269.423 226.228C272.668 214.115 277.845 202.518 285.623 192.647L296.286 182.39C302.596 177.184 309.756 173.37 317.457 170.663C319.105 170.071 321.166 169.194 322.917 169.117L313.619 173.498C307.567 176.72 301.978 180.431 296.647 184.761C293.324 187.518 289.564 190.766 287.014 194.271C279.983 202.75 275.836 212.286 272.437 222.697C271.252 226.306 269.887 230.558 269.604 234.347C267.955 239.63 267.44 246.588 267.492 252.129L267.517 253.186C266.667 253.186 265.921 253.083 265.096 252.851C264.272 237.826 262.675 222.414 255.773 208.78C256.288 207.956 256.134 207.647 257.061 207.131C261.336 214.708 262.804 222.852 265.019 231.125C265.431 224.373 265.045 217.491 265.174 210.713C265.328 202.183 265.74 193.549 267.234 185.147C269.269 173.627 273.39 161.849 278.721 151.437L281.734 145.819C281.812 144.788 280.936 143.371 280.575 142.391C278.051 135.948 274.935 130.098 271.149 124.325C271.406 123.964 271.716 123.681 272.076 123.346Z" fill="#172567"/>
<path d="M155.405 48.9672C157.002 49.0187 158.573 49.2764 160.169 49.5342C160.092 50.7454 159.938 52.0083 160.195 53.1938C161.586 53.6062 162.513 54.2762 163.646 55.1783L166.48 54.0443L169.441 59.5853C168.72 59.9719 167.69 60.41 167.123 61.0028C166.557 61.5698 166.969 65.0232 167.02 65.9768L169.261 67.7809C168.205 69.8942 167.252 71.7498 165.758 73.5796L162.951 72.291C161.56 73.0384 160.607 73.8115 159.5 74.9455L159.577 75.9249C159.551 76.4145 159.551 76.9558 159.139 77.265C158.264 77.9609 155.92 77.9351 154.838 77.7547L154.143 76.8784L153.267 74.7136L149.97 73.0642L147.524 75.5125L143.686 71.389L146.313 68.9406C145.978 68.3221 145.334 66.1057 144.845 65.7706C143.944 65.1521 142.604 65.9768 141.703 64.8944C141.548 63.7862 141.214 61.6213 141.935 60.6677C142.27 60.2296 144.098 60.3069 144.768 60.2038L146.236 56.57C145.618 55.7452 144.974 55.0752 144.871 54.0185C145.824 52.6784 146.828 51.5959 148.013 50.4877L150.872 53.0907C152.134 52.7041 153.602 52.3691 154.735 51.699L155.405 48.9672Z" fill="#FBCC52"/>
<path d="M154.606 59.3018C155.585 59.1214 156.693 59.0183 157.645 59.4307C158.65 59.8688 159.474 60.7966 159.86 61.8017C160.401 63.1419 160.324 64.5593 159.732 65.8737C159.165 67.085 158.238 67.5747 157.027 67.987C156.28 68.0901 155.482 68.1159 154.735 67.8839C153.576 67.5231 152.546 66.6211 152.031 65.5129C151.464 64.2758 151.49 63.1419 151.954 61.879C152.494 60.5131 153.37 59.8946 154.606 59.3018Z" fill="#FCFCFD"/>
<path d="M476.934 73.5281C476.959 76.8011 477.732 81.4659 475.208 83.9658C474.641 84.5328 473.663 85.2802 472.941 85.5379C471.937 85.9245 469.13 85.5895 467.893 85.5895L442.19 85.6668C441.108 85.6668 437.708 85.2802 436.936 85.6152C435.777 86.0791 434.128 87.7801 433.098 88.579L423.028 96.1045C421.508 97.2127 419.989 98.5271 418.366 99.4549L418.34 85.7956C415.713 85.6925 412.7 86.1049 410.717 84.1462C408.373 81.8009 408.888 78.4763 408.965 75.4094C410.073 76.698 411.541 78.5279 413.318 78.8371C415.378 79.1979 417.902 78.9402 420.014 78.9402L433.896 78.9145L456.819 78.8887C461.12 78.8887 465.575 79.1206 469.851 78.8114C471.036 78.734 471.989 78.5021 472.967 77.8062L473.148 77.6774C474.616 76.595 475.388 75.0229 476.702 73.76L476.934 73.5281Z" fill="#172567"/>
<path d="M247.763 117.418C241.633 110.305 239.934 99.326 240.474 90.2284L249.205 91.2851C257.499 93.0891 266.384 96.955 271.123 104.377C270.505 105.692 270.557 107.083 270.248 108.475C269.861 110.279 269.114 111.98 268.316 113.655C267.852 114.609 267.569 115.382 266.564 115.82L266.539 115.975C266.101 116.181 265.663 116.31 265.38 116.748L264.916 116.361C260.821 118.604 256.34 118.964 251.807 118.037C250.57 117.83 249.051 117.186 247.763 117.418Z" fill="#64BF65"/>
<path d="M264.247 115.408L253.481 103.321C257.808 105.924 261.594 110.047 264.787 113.913L266.564 115.846L266.539 116.001C266.101 116.207 265.663 116.336 265.38 116.774L264.916 116.387L264.247 115.408Z" fill="#1F4E58"/>
<path d="M269.629 234.321C270.505 234.269 274.111 228.728 275.064 227.646C282.121 219.708 292.732 214.631 303.317 214.193C311.765 213.832 320.29 214.992 328.223 217.955C329.871 218.574 331.983 219.296 333.271 220.481L333.065 220.533C331.056 220.971 328.712 220.79 326.652 220.842C323.844 220.893 321.088 221.151 318.307 221.564C302.854 223.857 287.941 229.372 276.738 240.79C273.312 244.269 270.634 248.392 267.466 252.104C267.466 246.563 267.955 239.604 269.629 234.321Z" fill="#D6E6E1"/>
<path d="M414.529 158.937H403.531L403.402 155.381C403.505 152.881 404.123 150.767 406.029 149.066C408.528 146.85 411.592 146.36 414.683 147.52C415.971 148.01 417.362 148.809 418.752 148.834C423.723 148.989 425.526 143.86 428.539 141.025C430.471 139.196 433.51 138.629 435.931 139.711C438.687 140.948 439.563 142.494 442.859 142.649L444.946 142.701C446.105 142.701 446.851 143.061 447.856 143.551C450.148 145.175 451.899 147.005 452.415 149.865C452.801 152.03 452.26 154.633 450.947 156.411C450.122 157.545 448.989 158.37 447.701 158.937H414.529Z" fill="#5DC5EF"/>
<path d="M473.457 307.668L473.766 307.694L482.265 307.771L482.291 321.508L482.265 327.023C482.265 327.436 482.394 328.57 482.265 328.879C482.136 329.188 481.544 329.729 481.312 329.987L448.706 330.013C446.8 327.977 447.444 324.42 447.444 321.74L447.573 307.643L473.457 307.668Z" fill="#C26C23"/>
<path d="M473.457 307.668L473.766 307.694L482.265 307.771L482.291 321.508L449.787 321.482L456.407 319.498C462.253 317.591 470.623 313.364 473.457 307.668Z" fill="#F9BD3F"/>
<path d="M447.573 307.694L473.457 307.668C470.624 313.338 462.253 317.591 456.432 319.524L449.813 321.508C449.066 321.534 448.113 321.431 447.47 321.792L447.573 307.694Z" fill="#FBCC52"/>
<path d="M101.808 41.0035C102.606 40.9262 103.431 41.0035 104.203 41.1066C107.345 41.4932 109.921 43.2457 111.827 45.7456C114.171 48.8641 114.222 52.2402 113.707 55.9256C114.222 55.9772 116.179 54.3793 116.849 54.0443C118.111 53.4515 119.631 52.9876 121.021 52.9618C123.365 52.9361 125.683 53.8896 127.331 55.5391C128.851 57.0596 129.881 58.8379 129.881 61.0285C129.881 62.3945 129.546 63.4769 128.542 64.4562C128.053 64.9459 127.46 65.384 126.791 65.5644C125.245 65.951 123.082 65.6933 121.459 65.7191L109.844 65.6933C105.749 65.6933 85.3246 66.3892 82.9809 65.1521C81.4613 64.3531 80.4311 62.9099 79.9675 61.2605C79.5812 59.8172 79.8903 58.3225 80.6372 57.0596C81.3841 55.8483 82.7233 54.8174 84.1141 54.5082C86.7412 53.9154 88.6728 54.8948 90.8363 56.2607C90.9393 55.3071 90.6302 54.2247 90.5272 53.2453C90.1924 50.1011 91.0681 47.3435 93.0512 44.9209C95.2919 42.1891 98.4598 41.3901 101.808 41.0035Z" fill="#5DC5EF"/>
<path d="M406.699 291.947C407.369 289.911 406.853 285.968 406.853 283.726L407.06 265.557L434.901 265.505L434.849 277.438L435.03 277.515L434.901 278.417C436.318 279.293 438.275 278.675 439.897 279.01H441.7L441.829 291.767L441.778 293.519L434.849 293.416L406.956 293.494L406.699 291.947Z" fill="#FBCC52"/>
<path d="M434.875 277.438L435.055 277.515L434.927 278.417C436.343 279.293 438.301 278.675 439.923 279.01C438.301 279.216 436.524 279.061 434.875 279.036L407.317 278.984L407.24 277.773C407.369 277.644 407.472 277.463 407.652 277.412C409.094 277 411.953 277.412 413.627 277.412L434.875 277.438Z" fill="#F0A83D"/>
<path d="M434.772 291.896L441.829 291.767L441.778 293.519L434.849 293.416L406.956 293.494L406.725 291.947L434.772 291.896Z" fill="#F49A3B"/>
<path d="M441.7 279.01L441.829 291.767L434.772 291.896L434.849 279.061C436.498 279.087 438.275 279.242 439.897 279.036L441.7 279.01Z" fill="#F9BD3F"/>
<path d="M285.907 121.799C291.444 114.918 299.196 111.078 307.927 110.15C312.203 109.712 316.375 109.893 320.573 110.717C319.286 122.083 314.907 134.093 305.867 141.592L305.197 142.082C301.025 144.685 295.926 146.077 291.006 144.969C289.1 144.53 287.504 143.757 285.752 142.855V142.494C285.572 141.979 285.186 141.773 284.748 141.489L284.542 141.541C284.001 140.226 283.331 138.886 282.996 137.495C281.734 131.851 282.971 126.696 285.907 121.799Z" fill="#64BF65"/>
<path d="M291.084 134.299C294.406 130.768 297.934 127.547 301.823 124.634C303.343 123.475 305.249 122.031 307.026 121.387L291.908 135.587C289.667 137.83 287.761 140.046 285.752 142.494C285.572 141.979 285.186 141.773 284.748 141.489C285.057 140.716 285.855 139.969 286.422 139.35L291.084 134.299Z" fill="#2E445A"/>
<path d="M285.907 121.799L291.084 134.299L286.448 139.35C285.881 139.995 285.083 140.716 284.773 141.489L284.567 141.541C284.027 140.226 283.357 138.886 283.022 137.495C281.734 131.851 282.971 126.696 285.907 121.799Z" fill="#19A063"/>
<path d="M291.933 135.587C296.157 138.706 300.304 140.433 305.223 142.082C301.051 144.685 295.951 146.077 291.032 144.969C289.126 144.53 287.529 143.757 285.778 142.855V142.494C287.787 140.046 289.693 137.83 291.933 135.587Z" fill="#19A063"/>
<path d="M447.598 279.061L466.786 278.881C469.568 278.855 472.632 278.597 475.388 278.881L482.213 279.035L482.291 306.071L482.265 307.771L473.766 307.694L473.457 307.668L447.573 307.694L447.547 305.942L447.624 293.545L447.65 293.288L447.521 291.793C448.088 287.927 447.598 283.03 447.598 279.061Z" fill="#FBCC52"/>
<path d="M447.547 305.942L474.178 306.096L474.358 306.174L482.316 306.096L482.291 307.797L473.791 307.72L473.482 307.694L447.598 307.72L447.547 305.942Z" fill="#F0A83D"/>
<path d="M475.388 278.881L482.213 279.035L482.291 306.071L474.332 306.148L474.152 306.071C475.903 301.895 475.543 297.798 475.414 293.416L447.598 293.519L447.624 293.262L447.495 291.767L475.259 291.844C475.517 290.53 475.362 289.009 475.362 287.669L475.388 278.881Z" fill="#F9BD3F"/>
<path d="M475.517 291.922L481.827 291.715C482.085 292.514 482.085 292.617 481.827 293.442L475.491 293.184L475.517 291.922Z" fill="#F49A3B"/>
<path d="M447.521 291.793L475.285 291.87L475.517 291.922L475.465 293.184C472.813 292.798 469.619 293.133 466.915 293.159L447.65 293.287L447.521 291.793Z" fill="#F0A83D"/>
<path d="M447.598 279.061L466.786 278.881C469.568 278.855 472.632 278.597 475.388 278.881V287.695C475.388 289.035 475.543 290.556 475.285 291.87L447.521 291.793C448.088 287.927 447.598 283.03 447.598 279.061Z" fill="#FBCC52"/>
<path d="M475.44 249.449L482.291 249.501L482.316 262.361L482.265 264.01L482.239 264.268C482.239 268.34 481.801 273.211 482.342 277.18L482.265 278.778L482.239 279.035L475.414 278.881C472.658 278.597 469.619 278.855 466.812 278.881L447.624 279.061L447.573 277.309L447.624 264.268L447.573 262.464L447.701 249.501H475.105L475.44 249.449Z" fill="#FBCC52"/>
<path d="M475.311 262.309L475.569 262.412L482.291 262.361L482.239 264.01L482.213 264.268C480.05 264.526 477.552 264.294 475.362 264.268H447.573L447.521 262.464L475.311 262.309Z" fill="#F0A83D"/>
<path d="M475.594 262.412L482.316 262.361L482.265 264.01C480.436 263.985 476.702 264.526 475.337 263.495L475.594 262.412Z" fill="#F49A3B"/>
<path d="M475.44 249.449L482.291 249.501L482.316 262.361L475.594 262.412L475.337 262.309C475.491 259.784 475.388 257.181 475.388 254.655C475.388 253.031 475.646 251.047 475.105 249.501L475.44 249.449Z" fill="#F9BD3F"/>
<path d="M475.388 264.268C477.577 264.294 480.076 264.526 482.239 264.268C482.239 268.34 481.801 273.211 482.342 277.18L482.265 278.778L482.239 279.035L475.414 278.881C472.658 278.597 469.619 278.855 466.812 278.881L447.624 279.061L447.573 277.309L447.624 264.268H475.388Z" fill="#FBCC52"/>
<path d="M475.388 277.206H479.895L482.316 277.18L482.239 278.778L482.213 279.035L475.388 278.881C472.632 278.597 469.593 278.855 466.786 278.881L447.598 279.061L447.547 277.309L475.388 277.206Z" fill="#F0A83D"/>
<path d="M479.895 277.206L482.316 277.18L482.239 278.778L475.723 278.597L475.362 278.108L475.697 277.592L479.895 277.206Z" fill="#F49A3B"/>
<path d="M475.388 264.268C477.577 264.294 480.076 264.526 482.239 264.268C482.239 268.34 481.801 273.211 482.342 277.18L479.921 277.206H475.414L475.388 264.268Z" fill="#F9BD3F"/>
<path d="M181.34 108.269C185.693 107.779 189.453 108.424 193.033 111.052C197.412 114.3 198.751 118.165 199.498 123.346C201.12 122.959 202.588 122.444 204.263 122.392C207.405 122.289 210.263 123.268 212.556 125.459C214.281 127.108 215.698 129.583 215.724 132.031C215.749 133.474 215.26 134.634 214.204 135.639C213.715 136.077 213.148 136.464 212.504 136.593C210.65 136.953 208.28 136.696 206.4 136.696L192.673 136.644L171.45 136.67C168.102 136.67 164.368 137.031 161.071 136.515C160.272 136.386 159.577 136.026 159.036 135.407C157.903 134.17 157.491 132.469 157.671 130.82C157.929 128.217 159.088 125.897 161.148 124.273C163.363 122.521 165.372 122.573 168.051 122.882C168.437 120.588 168.797 118.269 170.059 116.258C172.635 111.929 176.498 109.454 181.34 108.269Z" fill="#5DC5EF"/>
<path d="M488.24 227.929L488.163 194.76L480.385 194.812L504.723 168.679L528.727 194.657L521.181 194.683V309.112C520.486 306.457 520.924 302.669 520.924 299.885L520.872 280.659L520.769 194.657C520.383 194.503 520.099 194.4 519.687 194.4C519.559 194.4 518.992 194.4 518.889 194.477C518.451 194.735 517.627 196.023 517.241 196.487L513.017 201.255L488.24 227.929Z" fill="#61D5BB"/>
<path d="M114.119 102.238L113.295 100.305C112.599 98.6817 112.342 96.8777 111.981 95.1767C110.822 95.0221 109.818 95.0736 108.865 94.3778L109.097 87.7028C109.921 87.5997 111.878 87.677 112.342 86.9554L114.531 81.9298C113.913 80.9247 113.14 80.1515 113.372 78.966L118.42 74.1981L120.944 76.4403C122.799 75.4352 124.601 74.5847 126.61 73.8889L126.868 70.4354C129.186 70.4612 131.89 70.2292 134.105 70.8735C134.363 72.0333 133.77 72.9868 134.234 74.0435C135.264 74.5332 139.849 77.2393 140.621 77.0846L143.042 74.662L148.425 80.9247C147.421 81.6721 146.339 82.3679 145.515 83.3215L147.06 87.8832L150.382 88.244C150.898 89.9707 150.795 93.4757 150.099 95.1252C149.198 95.4087 148.219 95.3313 147.292 95.3313L144.948 100.743C145.618 101.568 146.725 102.702 147.06 103.682L142.373 108.372L140.261 106.594L134.672 108.888C134.491 110.021 134.44 111.233 133.616 112.083C132.843 112.238 132.07 112.367 131.375 112.728L131.272 113.81L131.118 112.728L129.778 112.444C129.392 112.599 128.387 112.496 127.95 112.521C126.971 111.877 126.816 110.073 126.507 108.913L122.052 107.238L119.116 109.145L113.501 104.506C113.99 104.017 114.428 103.656 114.686 103.011L114.119 102.238Z" fill="#F49A3B"/>
<path d="M128.31 77.1619C131.581 76.9815 134.801 77.2908 137.608 79.1464C140.802 81.2339 143.274 84.9709 144.098 88.6821C144.871 92.2644 144.15 96.0272 142.347 99.1714C140.029 103.192 136.294 104.97 132.019 106.156C128.387 106.542 124.756 105.821 121.717 103.733C118.6 101.568 116.463 97.6766 115.87 93.9654C115.252 90.048 116.437 85.5379 118.832 82.3937C121.124 79.3526 124.653 77.7031 128.31 77.1619Z" fill="#D85336"/>
<path d="M129.546 82.471C131.143 82.471 132.714 82.7545 134.105 83.5792C136.449 84.9451 138.2 87.3677 138.844 89.9965C139.282 91.7748 138.638 94.12 137.711 95.6664C136.088 98.3467 133.873 99.558 130.911 100.254C129.289 100.383 127.795 100.202 126.353 99.4033C124.112 98.1663 122.155 95.6664 121.511 93.1665C120.97 91.0531 121.485 88.7079 122.618 86.8781C124.267 84.2751 126.585 83.0895 129.546 82.471Z" fill="#FCFCFD"/>
<path d="M406.931 293.494L434.824 293.416L441.752 293.519L441.829 305.993L441.803 307.771L441.855 319.91C441.855 321.637 442.087 323.544 441.906 325.245C441.906 327.565 442.009 328.389 440.335 330.064L408.141 330.09C407.755 329.652 406.982 328.853 406.828 328.286C406.39 326.637 406.802 323.389 406.802 321.585L406.931 293.494Z" fill="#FBCC52"/>
<path d="M434.824 293.416L441.752 293.519L441.829 305.993L441.803 307.771L434.901 307.617C431.501 307.411 408.322 308.184 407.188 307.359L407.266 306.122C408.734 305.297 412.7 305.787 414.529 305.787L434.849 305.839L434.824 293.416Z" fill="#F9BD3F"/>
<path d="M407.24 306.148L441.829 306.019L441.803 307.797L434.901 307.643C431.501 307.436 408.322 308.21 407.188 307.385L407.24 306.148Z" fill="#F49A3B"/>
<path d="M434.901 307.617L441.803 307.771L441.855 319.91C441.855 321.637 442.087 323.544 441.906 325.245L441.803 325.194L441.726 321.56L408.502 321.534C410.897 320.632 413.524 320.477 416.048 320.168C421.663 319.472 427.87 317.204 432.094 313.338C434.18 311.483 434.798 310.349 434.901 307.617Z" fill="#F9BD3F"/>
<path d="M408.528 321.534L441.752 321.56L441.829 325.194L441.932 325.245C441.932 327.565 442.035 328.389 440.361 330.064L408.167 330.09C407.781 329.652 407.008 328.853 406.853 328.286C406.416 326.637 406.828 323.389 406.828 321.585L408.528 321.534Z" fill="#C26C23"/>
<path d="M333.296 220.507L334.121 220.868C334.095 222.156 331.983 224.553 331.236 225.687L326.111 234.347L321.088 243.856L315.448 253.315L267.543 253.134L267.517 252.078C270.685 248.392 273.364 244.243 276.789 240.764C287.993 229.372 302.879 223.831 318.358 221.538C321.14 221.125 323.896 220.868 326.703 220.816C328.763 220.765 331.107 220.945 333.116 220.507H333.296Z" fill="#CBE2D2"/>
<path d="M288.508 169.22C294.947 160.818 304.966 155.844 315.345 154.504C324.308 153.345 333.502 154.582 342.053 157.365C343.495 157.829 345.659 158.422 346.818 159.375L346.947 159.504L340.559 171.772L339.091 174.349C333.296 185.07 325.518 196.642 313.182 200.301L307.593 201.41L296.698 184.761C302.029 180.431 307.593 176.72 313.671 173.498L322.969 169.117C321.217 169.169 319.157 170.071 317.508 170.663C309.808 173.37 302.648 177.184 296.338 182.39L288.508 169.22Z" fill="#64BF65"/>
<path d="M366.546 293.03L366.624 282.824C367.087 282.077 367.242 281.613 368.066 281.2C369.534 280.505 373.243 280.943 374.917 280.943H393.28C395.598 280.943 399.05 280.479 401.162 281.252C401.754 282.953 401.445 285.479 401.445 287.308L401.471 300.426C401.471 302.488 401.29 304.756 401.522 306.818L401.445 308.467L401.471 321.92L401.445 326.817C401.445 327.255 401.574 328.132 401.445 328.467C401.316 328.853 400.569 329.575 400.26 329.884L400.028 330.116L367.886 330.09L367.577 329.961L367.448 329.832C365.903 328.26 366.521 323.956 366.546 321.74L366.624 294.061L366.546 293.03Z" fill="#FBCC52"/>
<path d="M394.568 306.766L401.548 306.792L401.471 308.442L394.542 308.364H367.216L366.856 307.875L367.062 306.895L394.568 306.766Z" fill="#F49A3B"/>
<path d="M366.546 293.03C368.684 292.334 372.161 292.824 374.505 292.824L394.542 292.875H400.852C401.316 293.494 401.162 293.648 401.084 294.396C399.024 294.782 396.629 294.525 394.542 294.499L374.17 294.473C372.135 294.473 368.272 294.988 366.675 294.035L366.546 293.03Z" fill="#F49A3B"/>
<path d="M394.542 308.338L401.471 308.416L401.496 321.869C399.307 321.585 397.015 321.74 394.8 321.714L383.88 321.637C385.271 320.658 386.996 320.013 388.438 319.137C389.855 318.261 391.143 316.946 392.328 315.761C393.074 315.013 394.079 314.034 394.465 313.029C394.852 311.972 394.542 309.55 394.542 308.338Z" fill="#F9BD3F"/>
<path d="M401.187 281.252C401.78 282.953 401.471 285.479 401.471 287.308L401.496 300.426C401.496 302.488 401.316 304.756 401.548 306.818L394.568 306.792L394.542 294.525C396.629 294.55 399.024 294.808 401.084 294.422C401.187 293.674 401.316 293.519 400.852 292.901H394.542L394.568 281.303L401.187 281.252Z" fill="#F9BD3F"/>
<path d="M383.88 321.637L394.8 321.714C397.015 321.714 399.307 321.585 401.496 321.869L401.471 326.766C401.471 327.204 401.599 328.08 401.471 328.415C401.342 328.802 400.595 329.523 400.286 329.833L400.054 330.064L367.911 330.039L367.602 329.91L367.474 329.781C365.928 328.209 366.546 323.905 366.572 321.688L383.88 321.637Z" fill="#C26C23"/>
<path d="M366.546 293.03L366.624 282.824C367.087 282.077 367.242 281.613 368.066 281.2C369.534 280.505 373.243 280.943 374.917 280.943H393.28C395.598 280.943 399.05 280.479 401.162 281.252L394.542 281.278L394.517 292.875L374.479 292.824C372.161 292.849 368.684 292.334 366.546 293.03Z" fill="#FBCC52"/>
<path d="M57.0969 157.133C52.873 152.674 49.293 148.139 48.2628 141.824C47.0523 134.557 48.8294 127.289 53.1563 121.335C57.2256 115.743 63.6645 112.032 70.4639 111.001C76.5936 110.073 84.0111 111.568 89.0592 115.305C90.9908 116.439 92.9225 118.14 94.236 119.944L94.2617 120.047L95.3434 121.439C99.7734 128.01 101.834 134.995 100.263 142.907C99.4385 147.056 97.4296 150.793 94.9829 154.195C95.9101 155.355 96.3479 156.102 96.5797 157.571L96.5282 158.061C94.7511 158.319 92.2271 159.04 90.5015 158.757C86.7412 161.385 83.0839 162.803 78.654 163.86C72.5758 164.427 67.708 163.421 62.2222 160.818L58.3589 158.164L57.5089 157.159L57.0969 157.133Z" fill="#FBCC52"/>
<path d="M64.8234 116.568C65.5703 116.336 65.6991 116.284 66.4975 116.49C66.6778 117.006 66.8066 117.032 66.3945 117.47C65.6734 118.269 64.2826 118.939 63.3554 119.583C61.6298 120.794 60.0587 122.263 58.7194 123.913C56.1954 127.031 53.8259 131.825 53.5169 135.923C53.3881 137.443 53.6714 139.247 53.2851 140.716L53.1563 141.129L52.3579 141.464L51.7398 141.051C51.2762 137.52 51.5337 134.325 52.667 130.923C54.6759 124.737 59.0543 119.531 64.8234 116.568Z" fill="#F9BD3F"/>
<path d="M89.0592 115.331C90.9908 116.465 92.9225 118.165 94.236 119.97L94.2617 120.073L95.3435 121.464C99.7734 128.036 101.834 135.02 100.263 142.933C99.4385 147.082 97.4296 150.819 94.9829 154.221C95.9101 155.381 96.3479 156.128 96.5797 157.597L96.5282 158.087C94.7511 158.344 92.2271 159.066 90.5015 158.782C86.7412 161.411 83.084 162.829 78.654 163.885C72.5758 164.452 67.708 163.447 62.2222 160.844L58.3589 158.19L57.509 157.185C59.9557 158.164 62.2479 159.453 64.7462 160.329C68.9443 161.798 74.4044 161.849 78.6798 160.767C85.2216 159.092 90.7848 155.097 94.2102 149.273C99.6961 139.943 99.0522 129.093 92.9997 120.201C91.9438 118.655 89.497 117.057 89.0592 115.331Z" fill="#F49A3B"/>
<path d="M90.5272 158.808C92.2013 157.391 93.5921 155.922 94.9829 154.247C95.9101 155.406 96.3479 156.154 96.5797 157.623L96.5282 158.112C94.7768 158.37 92.2528 159.092 90.5272 158.808Z" fill="#F9EFDE"/>
<path d="M86.7154 126.954C87.8229 126.825 88.7758 126.67 89.7545 127.366C90.553 127.933 91.0423 128.784 91.1196 129.789C91.1711 130.588 90.8878 131.412 90.4499 132.082C88.7501 134.737 85.9428 137.443 83.8051 139.814L76.8254 147.881C75.7437 149.092 74.662 149.788 72.9879 149.84C72.4728 149.865 71.8031 149.891 71.3395 149.659C70.3866 149.169 69.4079 148.087 68.6095 147.365L63.3554 142.572C61.9646 141.464 60.4708 140.381 59.4406 138.912C59.2861 137.623 59.2603 136.593 60.0587 135.484C60.5996 134.737 61.4753 134.144 62.4282 134.067C63.1236 134.015 63.8963 134.222 64.4886 134.582C65.5703 135.227 66.5748 136.361 67.502 137.211L72.8333 141.876C75.8725 138.938 78.4995 135.484 81.2038 132.263C82.7234 130.433 84.4747 127.804 86.7154 126.954Z" fill="#FCFCFD"/>
<path d="M254.537 41.9056C254.253 41.6736 253.97 40.7974 253.816 40.4623C252.734 37.8851 252.064 34.9471 251.704 32.1637C250.828 25.1794 252.888 17.1643 257.215 11.5975C262.057 5.36062 268.882 1.10821 276.815 0.154642C282.713 -0.541207 290.826 1.13399 295.642 4.87095L295.771 5.20599C296.132 6.05647 296.981 6.80387 297.548 7.49972C298.553 8.68524 299.506 9.99962 300.304 11.3398C304.502 18.4271 304.682 28.7875 301.901 36.3903C299.428 43.1684 294.664 49.1218 288.044 52.1629C282.43 54.7401 274.961 54.6628 269.192 52.5495C265.483 51.1836 261.542 48.7352 258.709 45.9518C257.627 44.9467 255.825 42.1375 254.537 41.9056Z" fill="#FBCC52"/>
<path d="M275.63 5.41217C275.862 5.41217 275.939 5.3864 276.197 5.46372C277.021 5.64412 277.588 6.00493 277.948 6.75233C278.335 7.55127 278.283 8.47906 277.923 9.278C277.253 10.7728 274.626 11.3913 273.209 11.9583C269.295 13.5304 265.74 17.3189 264.144 21.2105C263.603 22.5249 263.345 24.0712 262.727 25.3341C262.263 26.2876 261.697 26.4423 260.77 26.7773H260.229C259.044 26.7 258.658 26.1846 257.911 25.3598C257.37 22.4991 259.559 18.1952 261.079 15.8241C264.221 10.9274 269.887 6.64924 275.63 5.41217Z" fill="#F9BD3F"/>
<path d="M278.979 10.8501C279.674 10.5151 280.756 10.6181 281.528 10.5924L281.966 11.0047L281.992 15.6437C284.645 15.6953 287.04 16.3138 289.461 17.3705C289.384 18.5302 289.049 19.7157 288.817 20.8497C286.473 20.0765 284.155 19.6126 281.709 19.2261V25.2825C281.709 25.6176 281.606 26.7258 281.709 26.9835C281.734 27.0608 285.186 28.6587 285.649 28.9679C286.808 29.6896 287.813 30.6431 288.508 31.8287C289.306 33.1688 289.512 35.3079 289.049 36.8027L288.946 37.112C288.766 37.6274 288.585 38.0913 288.276 38.5294C286.757 40.6685 284.567 41.2871 282.095 41.7767C282.146 43.6323 282.636 46.9054 281.992 48.6064L280.884 48.7094C280.034 48.7094 279.365 48.8383 278.644 48.3744L278.618 42.2149C275.63 41.7767 272.978 41.184 270.17 39.9727L270.505 36.7769C271.072 36.4934 278.026 38.6841 279.236 38.8902C279.236 37.5243 279.648 31.3905 279.288 30.5916C279.262 30.5143 278 29.8957 277.845 29.8184C275.399 28.4783 272.772 26.7515 271.973 23.9166C271.561 22.4476 271.947 20.7208 272.694 19.458C274.034 17.2158 276.429 16.52 278.798 15.8499L278.979 10.8501Z" fill="#F9EFDE"/>
<path d="M278.257 19.9734L278.927 20.1539C278.953 21.494 279.391 24.5094 278.721 25.6176L278.026 25.0248L277.897 24.9217C277.073 24.1228 276.48 23.0661 276.635 21.8806C276.738 20.927 277.562 20.4889 278.257 19.9734Z" fill="#F9BD3F"/>
<path d="M282.043 31.9317C282.404 32.0091 282.584 32.1122 282.893 32.3183C283.692 32.8853 284.413 33.7616 284.542 34.7667C284.696 35.9264 284.258 36.6738 283.589 37.5759C283.202 37.9109 282.765 38.1686 282.327 38.4521L281.863 38.2202L282.043 31.9317Z" fill="#FBCC52"/>
<path d="M408.965 75.4094V56.7504C408.965 54.1216 408.605 51.0032 409.094 48.4517C409.274 47.4466 409.996 46.4415 410.691 45.7199C412.159 44.1993 413.576 44.0962 415.533 44.0704L455.325 44.0962H466.657C468.357 44.0962 470.417 43.89 472.092 44.1735C473.354 44.4055 474.384 44.9725 475.285 45.9003C476.135 46.7765 476.728 47.9878 476.934 49.1991C477.294 51.3382 476.985 54.0443 476.985 56.2349L476.959 73.5281L476.753 73.7342C475.44 74.9971 474.667 76.5692 473.199 77.6516L473.019 77.7805C472.04 78.5021 471.087 78.7083 469.902 78.7856C465.627 79.0949 461.171 78.8629 456.87 78.8629L433.948 78.8887L420.066 78.9145C417.954 78.9145 415.43 79.1722 413.37 78.8114C411.541 78.5279 410.073 76.698 408.965 75.4094Z" fill="#3A47A5"/>
<path d="M419.396 66.5438C420.607 66.1572 421.972 66.2861 423.234 66.2861L429.673 66.2603C437.399 66.2345 445.358 65.8737 453.058 66.3634C453.831 67.0077 453.831 66.9562 453.934 67.9613L453.213 68.6829C450.431 69.3014 446.336 68.786 443.4 68.786L419.886 68.6313C419.164 68.1674 419.113 68.1674 418.83 67.317L419.396 66.5438Z" fill="#FCFCFD"/>
<path d="M419.628 58.6833C420.813 58.3482 422.281 58.5286 423.491 58.5286L430.935 58.5544H462.562C464.004 58.5544 464.442 58.5544 465.472 59.5853C465.292 60.5131 465.215 60.4873 464.494 61.0543C462.614 61.3636 460.424 61.2089 458.519 61.2089H447.83C438.558 61.2089 428.926 61.7502 419.705 61.0543C419.01 60.4873 418.984 60.4873 418.804 59.6111L419.628 58.6833Z" fill="#FCFCFD"/>
<path d="M488.24 227.929L513.017 201.255L517.241 196.487C517.627 196.023 518.451 194.735 518.889 194.477C518.992 194.425 519.559 194.4 519.687 194.4C520.099 194.374 520.383 194.503 520.769 194.657L520.872 280.659L520.924 299.885C520.924 302.669 520.486 306.457 521.181 309.112V311.328L521.284 323.364C521.284 324.73 521.542 326.766 521.258 328.054C521.078 328.802 520.202 329.678 519.713 330.271L492.052 330.219L484.712 330.374C483.578 330.374 482.368 330.503 481.286 330.064C483.63 330.219 487.467 330.528 489.657 329.936C488.961 329.059 488.678 328.724 488.498 327.59C487.983 325.09 488.343 321.869 488.317 319.292L488.24 227.929Z" fill="#22BF98"/>
<path d="M520.898 280.659L520.949 299.885C520.949 302.669 520.511 306.457 521.207 309.112V311.328L521.31 323.364C521.31 324.73 521.567 326.766 521.284 328.054C521.104 328.802 520.228 329.678 519.739 330.271L492.078 330.219L484.737 330.374C483.604 330.374 482.394 330.503 481.312 330.064C483.656 330.219 487.493 330.528 489.682 329.936C488.987 329.059 488.704 328.724 488.523 327.59C488.008 325.09 488.369 321.869 488.343 319.292C489.039 318.776 488.292 316.225 488.626 315.374C488.858 314.833 490.223 313.699 490.661 313.209L506.243 296.638C511.24 291.406 516.339 286.226 520.898 280.659Z" fill="#19A063"/>
<path d="M488.523 327.539C488.781 325.786 488.626 323.879 488.652 322.101C490.043 321.482 492.155 321.508 493.7 321.199C497.358 320.451 501.015 319.549 504.517 318.235C508.561 316.714 512.579 314.833 516.133 312.333C517.678 311.251 519.172 309.627 520.795 308.828L521.207 311.277L521.31 323.312C521.31 324.678 521.567 326.714 521.284 328.003C521.104 328.75 520.228 329.626 519.739 330.219L492.078 330.168L484.737 330.322C483.604 330.322 482.394 330.451 481.312 330.013C483.656 330.168 487.493 330.477 489.682 329.884C488.987 329.008 488.729 328.699 488.523 327.539Z" fill="#0B8862"/>
<path d="M230.636 317.307L232.258 317.513C236.199 318.029 240.552 317.694 244.544 317.72H289.461C292.886 317.72 297.728 318.338 300.974 317.359L301.386 317.256L301.695 317.281L327.553 317.359C326.909 320.426 325.853 322.797 323.793 325.142C321.423 327.668 319.105 328.776 315.937 329.936H367.577L367.886 330.064L400.028 330.09H408.167L440.361 330.064H448.706L481.312 330.039C482.394 330.477 483.578 330.348 484.737 330.348L492.078 330.193L519.739 330.245L546.421 330.322C547.477 330.425 547.812 330.915 548.456 331.662C548.585 332.899 548.61 333.002 547.941 334.059C547.632 334.24 547.194 334.575 546.885 334.678C545.623 335.064 542.506 334.678 541.038 334.678L519.765 334.652L415.353 334.523L150.743 334.368L72.0864 334.394L47.5674 334.42C43.9874 334.42 39.9696 334.781 36.4411 334.394C35.3852 334.265 35.2306 333.93 34.6383 333.157C34.5868 331.946 34.561 331.791 35.2306 330.786C36.4411 329.936 39.1969 330.271 40.6908 330.245H54.6759L130.654 329.961C132.714 328.724 134.363 327.333 135.341 325.09L135.444 324.833C136.449 322.539 136.114 319.601 136.063 317.153L194.527 317.307L202.923 317.333C203.902 317.333 205.344 317.127 206.22 317.488L230.404 317.616L230.636 317.307Z" fill="#172567"/>
<path d="M211.938 325.992C214.487 325.554 217.346 325.838 219.947 325.838L234.448 325.889H293.814L310.529 325.838C314.959 325.838 319.44 325.967 323.818 325.168C321.449 327.693 319.131 328.802 315.963 329.961H367.602L367.911 330.09C366.031 330.4 363.997 330.245 362.091 330.245H351.608L313.31 330.116L246.063 330.142L220.128 330.013C219.098 329.369 217.758 329.214 216.599 328.827C214.796 328.183 213.406 327.204 211.938 325.992Z" fill="#3A47A5"/>
<path d="M136.114 317.153L194.579 317.307L202.975 317.333C203.953 317.333 205.396 317.127 206.271 317.488C207.611 321.147 208.898 323.441 211.938 325.992C213.406 327.229 214.771 328.183 216.599 328.802C217.758 329.188 219.098 329.343 220.128 329.987H130.654C132.714 328.75 134.363 327.358 135.341 325.116L135.444 324.858C136.475 322.539 136.14 319.601 136.114 317.153Z" fill="#FCFCFD"/>
<path d="M230.636 317.307L232.258 317.513C236.199 318.029 240.552 317.694 244.544 317.72H289.461C292.886 317.72 297.728 318.338 300.974 317.359L301.386 317.256L301.695 317.281L327.553 317.359C326.909 320.426 325.853 322.797 323.793 325.142C319.414 325.967 314.933 325.812 310.503 325.812L293.788 325.864H234.448L219.947 325.812C217.372 325.812 214.487 325.529 211.938 325.967C208.873 323.415 207.585 321.121 206.271 317.462L230.456 317.591L230.636 317.307Z" fill="#6E6ED6"/>
<path d="M265.122 252.825C265.946 253.057 266.693 253.134 267.543 253.16L315.448 253.341C317.663 253.495 319.826 253.366 321.475 255.119C323.226 257 322.428 262.902 322.402 265.454C322.402 267.464 322.737 270.015 321.14 271.51C319.723 272.85 315.912 272.85 314.057 272.541L313.98 272.489L312.589 280.092L310.323 293.107L308.494 303.983C307.979 307.127 307.773 310.787 306.305 313.648C304.863 315.349 303.498 316.405 301.489 317.281L301.077 317.385C297.831 318.364 292.989 317.745 289.564 317.745H244.647C240.655 317.745 236.302 318.055 232.362 317.539L230.739 317.333C228.782 316.431 227.494 315.426 226.103 313.776C223.837 310.297 223.785 304.524 223.193 300.478L220.102 279.345L219.072 272.438L218.995 272.464C217.733 272.618 214.668 272.592 213.586 271.845C212.71 271.227 212.144 270.144 211.989 269.113C211.551 267.026 211.783 264.758 211.835 262.619C211.809 260.608 211.448 256.562 212.581 254.861C212.968 254.294 213.689 253.547 214.384 253.366C216.934 252.722 221.029 253.212 223.708 253.212L252.064 253.238C256.005 253.238 260.873 253.779 264.71 253.057L265.122 252.825Z" fill="#B8B2ED"/>
<path d="M211.886 269.087C211.912 267.85 211.886 266.613 212.092 265.402C215.08 264.784 219.02 265.273 222.111 265.273L245.651 265.402L322.376 265.428C322.376 267.438 322.711 269.989 321.114 271.484C319.698 272.824 315.886 272.824 314.031 272.515L313.954 272.464L218.943 272.412L218.866 272.438C217.604 272.592 214.539 272.567 213.457 271.819C212.581 271.201 212.041 270.118 211.886 269.087Z" fill="#A49EE5"/>
<path d="M218.943 272.412L313.928 272.464L312.538 280.066L310.271 293.081L275.991 287.283L245.651 282.437C241.608 281.742 237.435 281.381 233.495 280.298C232.233 280.376 230.713 280.066 229.425 279.989L219.999 279.345L218.943 272.412Z" fill="#282E96"/>
<path d="M233.495 280.298C235.529 279.68 238.362 279.989 240.474 279.963H256.082L312.512 280.066L310.245 293.081L275.965 287.283L245.625 282.437C241.608 281.742 237.461 281.381 233.495 280.298Z" fill="#3A47A5"/>
<path d="M219.999 279.319L229.425 279.963C230.713 280.041 232.233 280.35 233.495 280.273C237.461 281.355 241.608 281.716 245.651 282.412L275.991 287.257L310.271 293.056L308.443 303.931C307.927 307.076 307.721 310.735 306.253 313.596C304.811 315.297 303.446 316.354 301.437 317.23L301.025 317.333C297.78 318.312 292.938 317.694 289.512 317.694H244.595C240.603 317.694 236.251 318.003 232.31 317.488L230.687 317.281C228.73 316.379 227.442 315.374 226.051 313.725C223.785 310.246 223.733 304.473 223.141 300.426L219.999 279.319Z" fill="#6E6ED6"/>
<path d="M226 313.776L306.228 313.622C304.785 315.323 303.42 316.379 301.411 317.256L300.999 317.359C297.754 318.338 292.912 317.72 289.487 317.72H244.57C240.577 317.72 236.225 318.029 232.284 317.513L230.662 317.307C228.678 316.431 227.391 315.426 226 313.776Z" fill="#3A47A5"/>
<path d="M131.324 153.035C134.852 152.339 138.715 152.288 142.321 152.082C148.811 151.721 155.353 151.257 161.844 151.386C168.694 151.515 175.803 152.236 182.628 151.85C184.56 151.747 186.491 151.18 188.372 150.819C193.6 149.762 198.674 148.37 203.953 147.649C216.986 145.871 230.404 145.304 243.565 146.025C250.287 146.412 257.009 147.314 263.68 148.19C268.239 148.783 274.6 149.247 278.695 151.437C273.39 161.824 269.243 173.627 267.208 185.147C265.715 193.549 265.303 202.183 265.148 210.713C265.019 217.491 265.406 224.373 264.993 231.125C262.778 222.852 261.31 214.708 257.035 207.131C256.108 207.647 256.262 207.956 255.747 208.78C262.624 222.388 264.221 237.826 265.071 252.851L264.556 253.083C260.718 253.804 255.85 253.263 251.91 253.263L223.579 253.212C220.875 253.212 216.805 252.722 214.256 253.366C213.586 253.547 212.839 254.294 212.453 254.861C211.319 256.536 211.68 260.608 211.706 262.619C211.654 264.732 211.422 267.026 211.86 269.113C212.015 270.144 212.556 271.227 213.457 271.845C214.539 272.592 217.604 272.618 218.866 272.464L218.943 272.438L219.973 279.345L223.064 300.478C223.656 304.55 223.733 310.297 225.974 313.776C227.365 315.426 228.653 316.431 230.61 317.333L230.404 317.616L206.22 317.488C205.318 317.127 203.876 317.333 202.923 317.333L194.527 317.307L136.063 317.153L135.882 234.63C135.599 231.615 133.564 229.527 131.349 227.672L131.246 181.926L131.324 153.035Z" fill="#F2F2F6"/>
<path d="M159.371 195.018L158.032 196.204C157.748 196.049 157.568 195.946 157.336 195.688C156.77 195.018 156.177 193.884 156.306 193.008L158.264 192.57C158.573 193.369 158.83 194.322 159.371 195.018Z" fill="#3A47A5"/>
<path d="M158.186 189.194L156.28 189.013L156.152 188.42C156.564 187.441 156.899 186.153 157.826 185.586L159.371 186.668C159.088 187.493 158.804 188.317 158.392 189.116L158.186 189.194Z" fill="#3A47A5"/>
<path d="M161.844 184.348L160.994 182.776C161.431 182.003 162.127 181.874 162.951 181.617C163.363 181.488 163.621 181.539 164.033 181.617C164.213 182.261 164.368 182.828 164.754 183.369C165.758 183.421 167.458 183.756 168.179 183.086L168.36 181.926C169.21 181.745 170.188 182.106 170.961 182.544C171.218 182.699 171.373 182.854 171.553 183.086C171.115 183.73 170.575 184.245 170.034 184.787L170.42 185.482L169.776 186.024L170.266 186.642L169.982 187.003C169.235 186.307 168.463 185.689 167.51 185.276C165.81 184.529 164.265 184.993 162.616 185.637L161.741 185.405L161.844 184.348Z" fill="#3A47A5"/>
<path d="M159.371 186.668L161.844 184.348L161.741 185.457L162.616 185.689C161.792 186.539 160.916 187.338 160.195 188.292C159.835 189.735 159.448 191.255 160.118 192.673C160.839 194.193 161.947 195.559 163.621 196.101C164.805 196.487 166.892 196.513 167.999 195.869C169.57 194.941 170.858 193.034 171.218 191.255C171.579 189.554 170.909 188.42 169.982 187.08L170.266 186.72L169.776 186.101L170.42 185.56L172.274 187.003L174.026 186.075C174.515 186.926 175.185 187.776 175.082 188.781C174.361 189.168 173.717 189.58 173.073 190.096C172.97 190.663 172.764 191.152 173.176 191.616C173.588 192.106 174.567 192.441 175.133 192.699C175.133 193.678 174.541 194.477 174.077 195.302L173.536 195.379L172.274 194.425C171.425 194.735 170.781 195.817 170.214 196.513L171.347 197.698C170.884 198.6 169.982 199.013 169.158 199.528C168.128 199.09 168.488 198.394 167.845 197.905C167.458 197.621 165.321 198.188 164.831 198.343L164.419 199.915C163.595 200.147 162.822 200.018 162.05 199.631C161.766 199.503 161.612 199.322 161.38 199.116L161.895 197.26C161.097 196.487 160.35 195.637 159.448 194.992C158.907 194.297 158.65 193.343 158.341 192.544L158.238 189.168L158.444 189.091C158.804 188.317 159.062 187.493 159.371 186.668Z" fill="#086ECC"/>
<path d="M162.616 185.689C164.265 185.07 165.81 184.58 167.51 185.328C168.463 185.74 169.235 186.359 169.982 187.055C170.884 188.395 171.553 189.529 171.218 191.23C170.858 193.008 169.57 194.915 167.999 195.843C166.892 196.487 164.805 196.461 163.621 196.075C161.947 195.508 160.839 194.168 160.118 192.647C159.448 191.23 159.809 189.709 160.195 188.266C160.916 187.338 161.818 186.539 162.616 185.689Z" fill="#5DC5EF"/>
<path d="M164.033 188.292C164.265 188.189 164.496 188.111 164.754 188.06C165.552 187.957 166.48 188.085 167.098 188.627C168.025 189.426 168.102 189.812 168.231 190.946C167.819 191.951 167.381 192.338 166.48 192.931L166.17 193.034C165.269 193.214 164.574 193.24 163.801 192.699C162.977 192.132 162.694 191.281 162.539 190.328C162.925 189.219 163.131 189.065 164.033 188.292Z" fill="#FCFCFD"/>
<path d="M169.004 238.419L169.364 238.341C171.682 237.826 174 235.764 176.37 234.836C185.744 231.177 197.54 231.537 206.246 236.898C207.276 237.542 208.255 238.444 209.336 238.96L209.542 239.681L209.723 239.733C214.436 240.893 219.638 247.336 222.987 250.686C223.579 251.279 224.686 252.696 225.408 253.006C225.717 253.134 226.644 253.006 227.056 253.031L232.233 253.057L264.607 253.083C260.77 253.805 255.902 253.263 251.961 253.263L223.579 253.212C220.875 253.212 216.805 252.722 214.256 253.366C213.586 253.547 212.839 254.294 212.453 254.861C211.319 256.536 211.68 260.608 211.706 262.619C209.774 263.701 207.482 264.397 205.396 265.067C196.793 267.799 188.088 268.108 179.228 266.407C170.06 264.629 161.019 260.557 154.323 253.933C151.851 251.485 149.79 248.599 147.833 245.738C149.223 246.227 150.666 246.794 152.108 247.026C158.341 248.032 164.033 244.063 168.823 240.532L168.566 239.759C168.154 239.475 168.154 239.449 168.025 238.96L169.004 238.419Z" fill="#D6E6E1"/>
<path d="M169.004 238.419L171.862 238.599L172.223 239.114L171.965 239.681C170.806 239.81 169.725 239.836 168.566 239.784C168.154 239.501 168.154 239.475 168.025 238.986L169.004 238.419Z" fill="#282E96"/>
<path d="M228.524 210.817C224.48 209.27 220.643 207.389 217.114 204.837C200.399 192.724 193.626 172.287 190.535 152.726C203.49 149.35 219.149 151.205 231.46 156.308C242.483 160.87 253.275 169.22 257.936 180.483C260.873 188.549 261.259 198.059 257.576 205.997L257.138 206.873L257.087 207.08C256.159 207.595 256.314 207.904 255.799 208.729L255.541 208.574C249.283 213.033 242.149 213.703 234.731 212.492C232.645 212.182 230.507 211.564 228.524 210.817Z" fill="#64BF65"/>
<path d="M246.141 195.302C237.461 184.89 227.442 176.436 215.981 169.169L216.136 168.859C222.188 171.952 228.06 175.174 233.417 179.4C238.723 183.575 243.307 188.601 247.634 193.73C249.618 196.152 251.704 198.575 253.455 201.152C254.691 202.982 255.747 205.172 257.112 206.899L257.061 207.105C256.134 207.621 256.288 207.93 255.773 208.755L255.515 208.6C255.026 207.002 253.764 205.456 252.837 204.064C250.777 201.049 248.639 197.982 246.141 195.302Z" fill="url(#paint0_linear_2002_257)"/>
<path d="M247.66 193.73L257.936 180.534C260.873 188.601 261.259 198.111 257.576 206.049L257.138 206.925C255.773 205.198 254.743 203.008 253.481 201.178C251.729 198.575 249.643 196.152 247.66 193.73Z" fill="#19A063"/>
<path d="M246.141 195.302C248.639 197.982 250.777 201.049 252.863 204.09C253.816 205.456 255.052 207.028 255.541 208.626C249.283 213.084 242.149 213.755 234.731 212.543C232.645 212.208 230.507 211.564 228.498 210.842C235.272 207.157 241.659 201.539 246.141 195.302Z" fill="#19A063"/>
<path d="M113.527 104.532L119.141 109.171L122.077 107.264L126.533 108.939C126.842 110.099 126.971 111.903 127.975 112.547C128.439 112.547 129.418 112.65 129.804 112.47L131.143 112.753L131.298 113.836L131.349 152.984L131.324 181.874L131.427 227.62C133.616 229.476 135.65 231.563 135.959 234.578L136.14 317.101C136.166 319.549 136.526 322.487 135.522 324.781L135.419 325.039C134.44 327.281 132.766 328.673 130.731 329.91L54.7531 330.193C51.6882 328.028 49.3703 326.791 47.825 323.183C46.7947 320.761 47.1296 317.642 47.1296 315.039C46.975 314.55 46.9493 313.673 46.7432 313.287C46.5629 312.977 37.1365 306.895 35.823 305.89C17.511 291.793 3.44862 274.036 0.409499 250.48C-1.70243 234.011 4.58185 218.265 14.1886 205.198C16.2232 202.441 18.67 199.992 20.7819 197.286L21.091 197.389C22.25 197.827 23.0999 198.214 24.3877 198.137C26.0875 198.034 27.7101 197.286 28.7918 195.946C30.1826 194.271 30.2856 192.544 30.1311 190.456C29.6417 189.297 28.9721 188.446 28.1737 187.493L33.608 180.869C33.7883 180.869 37.5486 176.771 37.9092 176.411C44.2707 169.761 51.0959 163.731 58.4104 158.138L62.2737 160.793C67.7338 163.421 72.6273 164.401 78.7055 163.834C83.1354 162.777 86.7927 161.36 90.5529 158.731C92.2785 159.014 94.8026 158.293 96.5797 158.035L96.6312 157.545C96.3994 156.076 95.9616 155.329 95.0344 154.169C97.4554 150.767 99.49 147.005 100.314 142.881C101.885 134.969 99.8249 127.985 95.3949 121.413L113.527 104.532Z" fill="#F2F2F6"/>
<path d="M113.578 193.188C114.351 193.137 115.175 193.059 115.948 193.188C117.776 193.498 119.038 194.528 120.017 196.075C120.79 197.26 121.099 199.322 120.687 200.688C120.017 202.982 118.343 204.116 116.308 205.147C115.227 205.172 114.093 205.25 113.037 204.863C111.595 204.348 110.075 202.93 109.483 201.539C108.839 200.044 108.788 198.162 109.432 196.668C110.307 194.709 111.672 193.961 113.578 193.188Z" fill="#5DC5EF"/>
<path d="M113.527 195.534C114.145 195.302 114.711 195.224 115.355 195.276C116.463 195.379 117.235 195.92 117.905 196.796C118.652 197.802 118.884 198.936 118.6 200.173C118.317 201.435 117.493 201.925 116.463 202.544C115.69 202.776 114.995 202.827 114.196 202.698C113.14 202.518 112.342 201.925 111.75 201.049C111.157 200.173 111.131 198.781 111.415 197.802C111.775 196.693 112.625 196.101 113.527 195.534Z" fill="#D6E6E1"/>
<path d="M90.5272 158.808C92.2528 159.092 94.7768 158.37 96.5539 158.112C95.1632 162.365 93.2057 165.535 89.1107 167.622C83.0582 170.741 76.9284 169.839 70.6699 167.932C73.0651 166.591 76.9027 165.973 78.7055 163.911C83.1097 162.854 86.7669 161.437 90.5272 158.808Z" fill="#C4C9DF"/>
<path d="M129.778 112.496L131.118 112.779L131.272 113.862L131.324 153.009L131.298 181.9C130.628 182.751 130.989 214.064 131.014 217.646L131.04 224.579C131.04 225.532 131.246 226.641 130.757 227.465L129.778 227.156L129.727 130.613L129.778 112.496Z" fill="#282E96"/>
<path d="M31.6764 258.907C32.8611 259.784 33.9429 261.072 34.9988 262.129L41.1801 268.469L31.8052 277.979C30.4917 277.077 29.3842 275.737 28.251 274.603L22.3788 268.598L31.6764 258.907Z" fill="#D85336"/>
<path d="M31.7794 261.33C34.4322 263.366 36.7245 266.149 39.0167 268.572L32.2688 275.427L31.5992 275.53L24.5937 268.546L31.7794 261.33Z" fill="#F9EFDE"/>
<path d="M58.4104 158.215L62.2737 160.87C63.9735 163.834 67.399 166.256 70.3608 167.803C65.7764 170.457 60.5481 172.184 55.8091 174.632C46.7175 179.323 38.5016 184.735 30.1053 190.534C29.616 189.374 28.9464 188.524 28.1479 187.57L33.5823 180.947C33.7626 180.947 37.5229 176.849 37.8834 176.488C44.2708 169.839 51.0701 163.808 58.4104 158.215Z" fill="#FCFCFD"/>
<path d="M113.527 104.532L119.141 109.171L122.077 107.264L126.533 108.939C126.842 110.099 126.971 111.903 127.975 112.547C128.439 112.547 129.418 112.65 129.804 112.47L129.778 130.613C128.98 131.515 129.418 150.381 129.418 153.241C122.386 153.19 114.943 154.375 108.015 155.587C105.723 155.973 98.2795 158.138 96.6312 157.597C96.3994 156.128 95.9616 155.381 95.0344 154.221C97.4554 150.819 99.49 147.056 100.314 142.933C101.885 135.02 99.8249 128.036 95.395 121.464L113.527 104.532Z" fill="#FCFCFD"/>
<path d="M129.804 227.182L130.783 227.491C131.272 226.666 131.066 225.558 131.066 224.605L131.04 217.672C131.014 214.09 130.654 182.776 131.324 181.926L131.427 227.672C133.616 229.527 135.65 231.615 135.96 234.63L136.14 317.153C136.166 319.601 136.526 322.539 135.522 324.833L135.419 325.09C134.44 327.333 132.766 328.724 130.731 329.961L54.7531 330.245C51.6883 328.08 49.3703 326.843 47.825 323.235C46.7948 320.812 47.1296 317.694 47.1296 315.091L47.0781 264.732L47.1038 245.635C47.1296 242.336 46.9493 238.882 47.2326 235.584C47.3099 234.656 47.5932 233.651 47.928 232.774C48.8037 230.429 50.6323 228.393 52.9245 227.388C53.9805 226.924 55.1395 226.589 56.2984 226.538C59.8784 226.357 63.5614 226.538 67.1414 226.563L88.4668 226.615L113.475 226.538L127.048 226.563C127.95 226.589 128.851 226.821 129.804 227.182Z" fill="#3A47A5"/>
<path d="M66.8839 322.771C69.5109 320.941 72.9364 320.039 75.9497 318.982L86.87 314.936L128.851 300.143L128.877 312.926C128.877 314.91 129.109 317.307 128.748 319.24C128.594 320.142 128.207 321.044 127.563 321.714C127.074 322.204 126.353 322.694 125.657 322.797C123.649 323.08 121.279 322.848 119.244 322.848H67.605L66.8839 322.771Z" fill="#22BF98"/>
<path d="M74.4559 234.063C74.4559 232.414 74.765 231.434 75.9497 230.275C76.4648 229.759 77.1602 229.166 77.8556 228.986C80.1221 228.367 83.4703 228.754 85.8655 228.754L102.478 228.78C104.203 228.806 105.44 228.883 106.702 230.223C107.5 231.073 107.912 232.671 107.86 233.805C111.028 233.805 125.606 233.187 127.254 234.682C128.027 235.377 128.568 236.331 128.671 237.362C128.928 239.836 128.748 242.491 128.748 244.965L128.722 258.959L128.877 300.117L86.8957 314.91L75.9755 318.957C72.9621 320.039 69.5367 320.915 66.9096 322.745L58.024 322.719C56.9423 322.668 56.1182 321.92 55.4228 321.121C54.8561 320.451 54.4441 319.833 54.3926 318.931C54.032 313.776 54.3668 308.364 54.3668 303.184L54.3153 270.556L54.2638 247.8C54.2638 244.449 53.9032 240.661 54.341 237.362C54.4956 236.254 55.191 235.352 56.0924 234.733C58.0498 233.419 71.9061 233.522 74.4559 234.063Z" fill="#61D5BB"/>
<path d="M90.0379 257.078C91.2484 257.103 92.4331 257.232 93.4891 257.825C94.8026 258.547 95.9101 259.861 96.2706 261.356C96.7085 263.108 96.5797 265.015 95.6268 266.588C94.5193 268.443 93.0512 269.113 91.0681 269.654C90.1666 269.603 89.0849 269.448 88.2607 269.113C86.7927 268.469 85.7367 267.077 85.1444 265.608C84.4747 263.959 84.4747 262.206 85.2731 260.583C86.2776 258.521 88.0032 257.722 90.0379 257.078Z" fill="#F0A83D"/>
<path d="M69.923 279.371C69.3049 278.855 68.6352 278.443 68.3777 277.644L78.5768 268.649L91.7892 277.902L111.878 259.732L108.813 256.794C112.084 255.531 115.896 254.887 119.322 253.959L118.034 262.644C117.828 263.804 117.931 264.139 116.952 264.809C115.742 264.268 114.531 262.49 113.63 261.459L106.779 267.696L100.366 273.237L99.0007 274.396L91.8922 280.53L84.3459 275.556L82.9294 274.577L78.7828 271.639L73.2454 276.433C72.1637 277.386 71.1335 278.597 69.923 279.371Z" fill="url(#paint1_linear_2002_257)"/>
<path d="M99.0007 274.422L99.0522 299.318L89.4712 299.267C87.7714 299.267 85.8913 299.06 84.2429 299.395L84.3717 275.582L91.918 280.556L99.0007 274.422Z" fill="#FCFCFD"/>
<path d="M74.4559 234.063C74.4559 232.414 74.765 231.434 75.9497 230.275C76.4648 229.759 77.1602 229.166 77.8556 228.986C80.1221 228.367 83.4703 228.754 85.8655 228.754L102.478 228.78C104.203 228.806 105.44 228.883 106.702 230.223C107.5 231.073 107.912 232.671 107.861 233.805L107.191 237.156C106.933 238.393 106.264 239.243 105.182 239.913C103.74 240.79 101.035 240.429 99.3613 240.455L85.5049 240.48C83.3157 240.48 80.2766 240.841 78.1904 240.3C76.1815 239.759 75.6149 236.022 74.6105 234.398L74.4559 234.063Z" fill="#172567"/>
<path d="M90.0636 230.764C90.6045 230.713 91.1196 230.687 91.6347 230.867C92.3816 231.125 93.0255 231.589 93.3603 232.336C93.7466 233.187 93.7981 234.295 93.386 235.171C92.8709 236.254 92.3558 236.434 91.3256 236.872C90.965 236.898 90.5787 236.924 90.2181 236.821C89.394 236.64 88.5956 236.176 88.1577 235.429C87.5653 234.424 87.7971 233.393 88.0289 232.311C88.5956 231.434 89.1107 231.151 90.0636 230.764Z" fill="#F0A83D"/>
<path d="M69.923 279.371C71.1335 278.572 72.1637 277.386 73.2454 276.407L78.7828 271.613L82.9294 274.577L84.3459 275.556L84.2172 299.37C83.599 299.318 83.4703 299.241 82.9551 298.854L82.44 299.189C80.9462 298.906 78.9888 299.138 77.4435 299.138L67.0899 299.164L67.0126 281.999C67.9141 280.994 68.8413 280.195 69.923 279.371Z" fill="#FCFCFD"/>
<path d="M82.9294 274.603L84.346 275.582L84.2172 299.395C83.599 299.344 83.4703 299.267 82.9552 298.88L82.9294 274.603Z" fill="#2EC9C9"/>
<path d="M106.779 267.696L116.102 267.67L116.051 299.396C114.531 299.396 112.11 299.086 110.719 299.473L100.288 299.396L100.366 273.237L106.779 267.696Z" fill="#FCFCFD"/>
</g>
<defs>
<linearGradient id="paint0_linear_2002_257" x1="239.185" y1="184.953" x2="235.11" y2="189.806" gradientUnits="userSpaceOnUse">
<stop stop-color="#0D5D46"/>
<stop offset="1" stop-color="#1E3D74"/>
</linearGradient>
<linearGradient id="paint1_linear_2002_257" x1="95.6287" y1="278.84" x2="92.8029" y2="258.17" gradientUnits="userSpaceOnUse">
<stop stop-color="#00828D"/>
<stop offset="1" stop-color="#00A6A9"/>
</linearGradient>
<clipPath id="clip0_2002_257">
<rect width="548.528" height="334.848" fill="white"/>
</clipPath>
</defs>
</svg>
